<svg width="55" height="386" viewBox="0 0 55 386" fill="none" xmlns="http://www.w3.org/2000/svg">
<path d="M0 6.83054H55V18.5853H0V6.83054Z" fill="#993D3D"/>
<path d="M0 0H55V4.76543H0V0Z" fill="#993D3D"/>
<path d="M0 25.4157H55V30.1811H0V25.4157Z" fill="#993D3D"/>
<path d="M0 50.8313H55V55.5967H0V50.8313Z" fill="#993D3D"/>
<path d="M0 76.247H55V81.0124H0V76.247Z" fill="#993D3D"/>
<path d="M0 67.0337H55V74.023H0V67.0337Z" fill="#993D3D"/>
<path d="M0 101.663H55V106.428H0V101.663Z" fill="#993D3D"/>
<path d="M0 101.663H55V106.428H0V101.663Z" fill="#993D3D"/>
<path d="M0 152.494H55V157.259H0V152.494Z" fill="#993D3D"/>
<path d="M0 159.483H55V166.472H0V159.483Z" fill="#993D3D"/>
<path d="M0 171.079H55V173.303H0V171.079Z" fill="#993D3D"/>
<path d="M0 177.909H55V182.675H0V177.909Z" fill="#993D3D"/>
<path d="M0 184.899H55V189.505H0V184.899Z" fill="#993D3D"/>
<path d="M0 194.112H55V201.101H0V194.112Z" fill="#993D3D"/>
<path d="M0 205.708H55V208.09H0V205.708Z" fill="#993D3D"/>
<path d="M0 212.697H55V217.304H0V212.697Z" fill="#993D3D"/>
<path d="M0 221.91H55V226.517H0V221.91Z" fill="#993D3D"/>
<path d="M0 228.741H55V233.506H0V228.741Z" fill="#993D3D"/>
<path d="M0 235.73H55V240.495H0V235.73Z" fill="#993D3D"/>
<path d="M0 244.943H55V251.932H0V244.943Z" fill="#993D3D"/>
<path d="M0 256.539H55V258.922H0V256.539Z" fill="#993D3D"/>
<path d="M0 263.37H55V268.135H0V263.37Z" fill="#993D3D"/>
<path d="M0 272.741H55V277.348H0V272.741Z" fill="#993D3D"/>
<path d="M0 279.572H55V284.337H0V279.572Z" fill="#993D3D"/>
<path d="M0 288.944H55V293.709H0V288.944Z" fill="#993D3D"/>
<path d="M0 302.764H55V309.753H0V302.764Z" fill="#993D3D"/>
<path d="M0 298.157H55V300.54H0V298.157Z" fill="#993D3D"/>
<path d="M0 314.36H55V318.966H0V314.36Z" fill="#993D3D"/>
<path d="M0 330.403H55V335.169H0V330.403Z" fill="#993D3D"/>
<path d="M0 323.573H55V328.338H0V323.573Z" fill="#993D3D"/>
<path d="M0 339.775H55V346.765H0V339.775Z" fill="#993D3D"/>
<path d="M0 355.819H55V360.584H0V355.819Z" fill="#993D3D"/>
<path d="M0 348.988H55V351.371H0V348.988Z" fill="#993D3D"/>
<path d="M0 369.798H55V372.18H0V369.798Z" fill="#993D3D"/>
<path d="M55 376.628H0V379.17H55V376.628Z" fill="#993D3D"/>
<path d="M55 381.235H0V386H55V381.235Z" fill="#993D3D"/>
<path d="M0 117.706H55V122.63H0V117.706Z" fill="#993D3D"/>
<path d="M0 136.45H55V141.057H0V136.45Z" fill="#993D3D"/>
<path d="M0 145.505H55V150.111H0V145.505Z" fill="#993D3D"/>
<path d="M0 124.695H55V131.685H0V124.695Z" fill="#993D3D"/>
<path d="M0 108.652H55V115.641H0V108.652Z" fill="#993D3D"/>
<path d="M0 94.6733H55V99.4387H0V94.6733Z" fill="#993D3D"/>
<path d="M0 85.4602H55V90.2257H0V85.4602Z" fill="#993D3D"/>
<path d="M0 34.6288H55V37.0116H0V34.6288Z" fill="#993D3D"/>
<path d="M0 41.6181H55V44.0008H0V41.6181Z" fill="#993D3D"/>
<path d="M0 60.0445H55V62.4273H0V60.0445Z" fill="#993D3D"/>
</svg>
