<svg width="100" height="100" viewBox="0 0 121 121" fill="none" xmlns="http://www.w3.org/2000/svg">
<path d="M81.0755 1.9592C79.3962 -0.232857 76.2577 -0.64846 74.0657 1.03093C71.8736 2.71031 71.458 5.84874 73.1374 8.0408L81.0755 1.9592ZM94.8836 49.1378L89.9067 48.6571L94.8836 49.1378ZM0.57699 92.6683C-0.710791 95.111 0.225505 98.1352 2.66827 99.423L42.4754 120.409C44.9181 121.696 47.9423 120.76 49.2301 118.317C50.5179 115.875 49.5816 112.85 47.1388 111.563L11.7547 92.9087L30.4086 57.5246C31.6964 55.0819 30.7601 52.0577 28.3173 50.7699C25.8746 49.4821 22.8504 50.4184 21.5626 52.8612L0.57699 92.6683ZM77.1065 5C73.1374 8.0408 73.1369 8.04013 73.1364 8.03955C73.1364 8.03949 73.136 8.03901 73.1359 8.03889C73.1357 8.03864 73.1358 8.03877 73.1362 8.03929C73.137 8.04032 73.139 8.04288 73.1421 8.04695C73.1483 8.0551 73.1591 8.06931 73.1743 8.08944C73.2048 8.12971 73.2529 8.19369 73.3176 8.28039C73.4469 8.45382 73.642 8.71795 73.893 9.06491C74.3953 9.75917 75.12 10.783 75.9882 12.0734C77.7286 14.6602 80.0258 18.2885 82.2615 22.4596C86.8821 31.0807 90.6502 40.9597 89.9067 48.6571L99.8604 49.6185C100.913 38.7259 95.7921 26.536 91.0753 17.7356C88.6422 13.1961 86.1585 9.27559 84.2851 6.49118C83.3464 5.09605 82.556 3.97871 81.9949 3.20321C81.7143 2.81529 81.4906 2.5124 81.3341 2.30251C81.2558 2.19755 81.1943 2.11581 81.1508 2.05827C81.1291 2.0295 81.1118 2.00677 81.0992 1.99022C81.0929 1.98195 81.0878 1.97521 81.0838 1.97004C81.0819 1.96745 81.0802 1.96525 81.0788 1.96345C81.0781 1.96254 81.0773 1.96148 81.0769 1.96103C81.0762 1.96007 81.0755 1.9592 77.1065 5ZM89.9067 48.6571C89.8548 49.1946 89.3285 50.6025 87.0091 52.872C84.8146 55.0191 81.5865 57.3816 77.4855 59.8734C69.3075 64.8422 58.4102 69.8778 47.368 74.4154C36.3663 78.9364 25.3982 82.8913 17.167 85.7196C13.0552 87.1324 9.63521 88.2611 7.24653 89.0356C6.05237 89.4227 5.11646 89.7212 4.48131 89.9221C4.16375 90.0226 3.92142 90.0987 3.75963 90.1493C3.67873 90.1747 3.61797 90.1936 3.57802 90.206C3.55804 90.2123 3.54327 90.2168 3.53378 90.2198C3.52903 90.2213 3.52561 90.2223 3.52352 90.223C3.52247 90.2233 3.5219 90.2235 3.52138 90.2236C3.52114 90.2237 3.52124 90.2237 5 95C6.47876 99.7763 6.47953 99.7761 6.48064 99.7757C6.48145 99.7755 6.4829 99.775 6.48453 99.7745C6.48779 99.7735 6.49239 99.7721 6.49831 99.7703C6.51016 99.7666 6.52731 99.7613 6.54968 99.7543C6.59442 99.7404 6.66004 99.7199 6.74587 99.6931C6.91753 99.6393 7.17005 99.56 7.4981 99.4562C8.15418 99.2486 9.11254 98.943 10.3305 98.5481C12.7662 97.7585 16.2421 96.6113 20.4166 95.1769C28.758 92.3107 39.9241 88.2858 51.1689 83.6649C62.3732 79.0607 73.8345 73.7927 82.678 68.4196C87.0877 65.7403 91.0361 62.9222 94.0026 60.0197C96.8442 57.2394 99.4634 53.7285 99.8604 49.6185L89.9067 48.6571Z" fill="white"/>
</svg>
